<?xml version="1.0" encoding="utf-8"?>
<!-- Generator: Adobe Illustrator 16.0.0, SVG Export Plug-In . SVG Version: 6.00 Build 0)  -->
<!DOCTYPE svg PUBLIC "-//W3C//DTD SVG 1.1//EN" "http://www.w3.org/Graphics/SVG/1.1/DTD/svg11.dtd">
<svg version="1.1" id="Layer_1" xmlns="http://www.w3.org/2000/svg" xmlns:xlink="http://www.w3.org/1999/xlink" x="0px" y="0px"
	 width="365px" height="792px" viewBox="0 0 365 792" enable-background="new 0 0 365 792" xml:space="preserve">
<g>
	<g>
		<g>
			<g>
				<g>
					<path fill="#FFFFFF" d="M362.8,741.8c0,27.5-22.4,49.8-50,49.8H51.7c-27.6,0-50-22.3-50-49.8v-690C1.7,24.3,24.1,2,51.7,2
						h261.1c27.6,0,50,22.3,50,49.8V741.8z"/>
					<g>
						<linearGradient id="SVGID_1_" gradientUnits="userSpaceOnUse" x1="182.2456" y1="0" x2="182.2456" y2="791.5103">
							<stop  offset="0" style="stop-color:#DFDFDF"/>
							<stop  offset="1" style="stop-color:#4C4C4C"/>
						</linearGradient>
						<path fill="url(#SVGID_1_)" d="M312.8,791.5H51.7c-28.7,0-52-23.2-52-51.6V51.6C-0.3,23.2,23,0,51.7,0h261.1
							c28.7,0,52,23.2,52,51.6v688.2C364.8,768.3,341.4,791.5,312.8,791.5z M51.7,4c-26.5,0-48,21.4-48,47.7v688.2
							c0,26.3,21.5,47.7,48,47.7h261.1c26.5,0,48-21.4,48-47.7V51.6c0-26.3-21.5-47.7-48-47.7H51.7z"/>
					</g>
				</g>
				<linearGradient id="SVGID_2_" gradientUnits="userSpaceOnUse" x1="182.2456" y1="698.0078" x2="182.2456" y2="768.1348">
					<stop  offset="0" style="stop-color:#DFDFDF"/>
					<stop  offset="1" style="stop-color:#4C4C4C"/>
				</linearGradient>
				<circle fill="none" stroke="url(#SVGID_2_)" stroke-width="5" stroke-miterlimit="10" cx="182.2" cy="733.1" r="32.6"/>
			</g>
		</g>
	</g>
</g>
<g>
	<circle fill="#384142" cx="182" cy="35.1" r="6.8"/>
	<circle fill="#384142" cx="129" cy="64.1" r="4.6"/>
	<path fill="#384142" d="M216.6,64c0,2.4-2,4.4-4.4,4.4h-60.5c-2.4,0-4.4-2-4.4-4.4l0,0c0-2.4,2-4.4,4.4-4.4h60.5
		C214.7,59.6,216.6,61.6,216.6,64L216.6,64z"/>
</g>
</svg>
