<?xml version="1.0" encoding="utf-8"?>
<!-- Generator: Adobe Illustrator 16.0.0, SVG Export Plug-In . SVG Version: 6.00 Build 0)  -->
<!DOCTYPE svg PUBLIC "-//W3C//DTD SVG 1.1//EN" "http://www.w3.org/Graphics/SVG/1.1/DTD/svg11.dtd">
<svg version="1.1" id="Layer_1" xmlns="http://www.w3.org/2000/svg" xmlns:xlink="http://www.w3.org/1999/xlink" x="0px" y="0px"
	 width="365px" height="792px" viewBox="0 0 365 792" enable-background="new 0 0 365 792" xml:space="preserve">
<g>
	<g>
		<g>
			<g>
				<g>
					<path fill="#FFFFFF" d="M362.8,741.8c0,27.5-22.4,49.8-50,49.8H51.7c-27.6,0-50-22.3-50-49.8v-690C1.7,24.3,24.1,2,51.7,2
						h261.1c27.6,0,50,22.3,50,49.8V741.8z"/>
					<g>
						<linearGradient id="SVGID_1_" gradientUnits="userSpaceOnUse" x1="182.2461" y1="0" x2="182.2461" y2="791.5103">
							<stop  offset="0" style="stop-color:#DFDFDF"/>
							<stop  offset="1" style="stop-color:#4C4C4C"/>
						</linearGradient>
						<path fill="url(#SVGID_1_)" d="M312.8,791.5H51.7c-28.7,0-52-23.2-52-51.6V51.6C-0.3,23.2,23,0,51.7,0h261.1
							c28.7,0,52,23.2,52,51.6v688.2C364.8,768.3,341.4,791.5,312.8,791.5z M51.7,4c-26.5,0-48,21.4-48,47.7v688.2
							c0,26.3,21.5,47.7,48,47.7h261.1c26.5,0,48-21.4,48-47.7V51.6c0-26.3-21.5-47.7-48-47.7H51.7z"/>
					</g>
				</g>
				<linearGradient id="SVGID_2_" gradientUnits="userSpaceOnUse" x1="182.2461" y1="698.0078" x2="182.2461" y2="768.1348">
					<stop  offset="0" style="stop-color:#DFDFDF"/>
					<stop  offset="1" style="stop-color:#4C4C4C"/>
				</linearGradient>
				<circle fill="none" stroke="url(#SVGID_2_)" stroke-width="5" stroke-miterlimit="10" cx="182.2" cy="733.1" r="32.6"/>
				<g>
					<circle fill="#384142" cx="181.7" cy="37.2" r="6.7"/>
				</g>
			</g>
		</g>
	</g>
</g>
<g>
	<path fill="#56C5D1" d="M232.9,70.3L232.9,70.3c1.7-0.2,2.7-1.7,2.7-3.4c0-2.7-1.8-3.3-4.6-3.3h-6l-3,14.3h7.6
		c2.9,0,5.5-1.6,5.5-4.7C235,71.8,234.3,70.6,232.9,70.3z M229.4,75.4h-3.9l0,0h-0.2l0.8-3.9h3.1c0,0,0,0,0,0h0.1
		c1.1,0,2.5,0.1,2.5,1.6C231.9,74.6,230.8,75.4,229.4,75.4z M230.3,69.3h-3.6l0,0h-0.2l0.7-3.3h3.3c0,0,0,0,0,0h0.1
		c1,0,1.7,0.4,1.7,1.5C232.5,68.7,231.5,69.3,230.3,69.3z"/>
	<g>
		<path fill="#182F58" d="M133.2,72.3c-0.7,0-1.3,0.3-1.8,0.9l0,0l0.6-2.9h-1l-1.7,8h0.8l0.2-1.1h0c0.1,0.6,0.9,1.2,1.9,1.2
			c2,0,3.1-1.8,3.1-3.6C135.5,73.3,134.8,72.3,133.2,72.3z M132.4,77.5c-0.9,0-1.6-0.5-1.6-1.4c0-1.2,0.7-2.9,2.4-2.9
			c0.9,0,1.3,0.7,1.3,1.7C134.5,75.9,133.8,77.5,132.4,77.5z"/>
		<path fill="#182F58" d="M137.3,77.1L137.3,77.1l-0.7-4.6h-1l1,5.8l-0.6,1c-0.2,0.4-0.5,0.6-0.9,0.6c-0.2,0-0.4-0.1-0.5-0.2
			l-0.2,0.8c0.2,0.1,0.4,0.1,0.7,0.1c1,0,1.4-0.6,1.9-1.4l3.8-6.8h-1L137.3,77.1z"/>
	</g>
	<polygon fill="#182F58" points="162.8,70.4 162.5,71.2 162.8,70.6 	"/>
	<g>
		<path fill="#182F58" d="M154.3,72.9c0-2.9-1.8-3.8-4.3-4.5c-1.1-0.3-3.8-0.7-3.8-2.3c0-1.5,1.5-2,2.8-2c1.6,0,4.5,0.2,4.9,2h3
			c-0.4-3.8-4.5-4.8-7.7-4.8c-3.1,0-6.3,1.4-6.3,5c0,2.7,2,3.7,4,4.3c2,0.6,4,0.9,4,2.5c0,1.6-1.6,2.3-3,2.3c-2,0-3.6-0.7-3.4-3
			h-3.3c0,3.8,2.2,5.7,6.6,5.7C150.9,78.2,154.3,76.8,154.3,72.9z"/>
		<path fill="#182F58" d="M170.1,66.6c-1.6,0-2.8,0.6-3.8,1.8h0l0.3-1.5h-0.9l-3,6l-1.2,4.9h3l1.2-5.8c0.3-1.5,1.2-3,3.1-3
			c0.7,0,1.4,0.5,1.4,1.1c0,0.3-0.1,1-0.2,1.3l-1.3,6.4h3l1.4-6.4c0.1-0.4,0.3-1.4,0.3-1.9C173.2,67.7,172.1,66.6,170.1,66.6z"/>
		<path fill="#182F58" d="M162.8,71l2-4.1h-1.1H162l-3.8,7.8h0l-0.9-7.8h-3.1l1.9,10.8c-0.4,0.6-0.6,1.5-2,1.5
			c-0.4,0-0.8-0.1-1.2-0.1l-0.5,2.5c0.5,0,1.1,0.1,1.6,0.1c2.3,0,3.2-0.4,4.2-2.3l4.3-7.6L162.8,71z"/>
		<g>
			<path fill="#182F58" d="M184,73.2c0.1-0.5,0.2-1.1,0.2-1.7c0-3.2-2-4.8-5.1-4.8c-3.7,0-6,3.2-6,6.7c0,3.1,1.9,4.8,4.9,4.8
				c3.1,0,4.7-1.3,5.7-3.8h-3c-0.4,0.7-1,1.5-2.2,1.5c-1.6,0-2.4-0.9-2.4-2.1c0-0.2,0-0.4,0-0.6H184z M179.2,69c1.8,0,2,1.2,2,2.3
				h-5C176.7,70.1,177.6,69,179.2,69z"/>
		</g>
		<path fill="#182F58" d="M191.9,66.7C191.8,66.7,191.8,66.7,191.9,66.7C191.8,66.7,191.8,66.7,191.9,66.7
			C191.9,66.7,191.9,66.7,191.9,66.7z"/>
		<path fill="#182F58" d="M192.2,69.7l0-0.1l-0.2-0.1c0,0.1-0.1,0.2-0.1,0.2C192,69.6,192.1,69.7,192.2,69.7z"/>
		<path fill="#182F58" d="M208.4,70.4l-2.5,4.3h0L205,67h-1.3l-0.8,4.2l0.9,6.6c-0.4,0.6-0.6,1.5-2,1.5c-0.4,0-0.8-0.1-1.2-0.1
			l-0.5,2.5c0.5,0,1.1,0.1,1.6,0.1c2.3,0,3.2,0.4,4.2-1.5l2.9-5.1C208.3,73.3,208.1,72.1,208.4,70.4z"/>
		<path fill="#182F58" d="M191.2,69.5c0.1-0.2,0.2-0.3,0.3-0.4c0.3-0.4,0.5-0.7,0.8-1c0.5-0.5,0.8-0.8,1.2-1.1
			c-1.1-0.3-1.3-0.3-1.6-0.3c0,0,0,0-0.1,0c-0.1,0-0.2,0-0.3,0c-0.1,0-0.2,0-0.3,0c-1.3,0.2-2.5,1-3.1,2.2l0,0l0.4-2h-2.8l-2.3,10.9
			h3l1-4.8c0.4-1.9,1.2-3.6,3.5-3.6C191.1,69.5,191.1,69.5,191.2,69.5z"/>
		<path fill="#182F58" d="M201.8,73L201.8,73l0.6-3.1l0.5-2.9v0h-2.7l-0.3,1.7h0c-0.6-1.4-1.8-2-3.3-2c-0.4,0-0.8,0.1-1.2,0.1
			c-0.1,0-0.6,0.1-1,0.4c-0.6,0.3-1.3,0.8-2,1.7c-0.1,0.1-0.2,0.4-0.3,0.5l0.2,0.1l0,0.1c-0.1,0-0.2,0-0.3-0.1
			c-0.1,0.1-0.1,0.2-0.2,0.3c-0.5,1-0.8,2.2-0.8,3.3c0,2.7,1.6,4.5,4.2,4.5c1.2,0,2.2-0.5,3-1.5l0,0c-0.6,2.1-1.1,3.8-3,3.8
			c-1,0-2-0.5-2-1.6h-3c0,2.6,2.4,3.6,4.7,3.6c3.6,0,5.3-1.4,6-4.7L201.8,73z M196,75.4c-1.4,0-2-1.1-2-2.4c0-1.8,1.1-4.1,3.1-4.1
			c1.5,0,2.2,1,2.2,2.4C199.2,73.1,198.2,75.4,196,75.4z"/>
		<path fill="#182F58" d="M194.3,67.2c0,0,0.1,0,0.1,0c0.4-0.2,0.8-0.4,0.9-0.4C194.9,66.9,194.6,67,194.3,67.2z"/>
		<path fill="#182F58" d="M191.9,69.6c0,0.1-0.1,0.2-0.1,0.3C191.8,69.8,191.9,69.7,191.9,69.6C191.9,69.6,191.9,69.6,191.9,69.6z"
			/>
		<path fill="#182F58" d="M192,69.4L192,69.4c-0.1,0.1-0.1,0.1-0.2,0.2c0,0,0,0,0,0C192,69.5,192,69.5,192,69.4z"/>
		<path fill="#182F58" d="M192.3,69l0-0.1c-0.1,0.2-0.2,0.3-0.3,0.5l0,0C192.1,69.3,192.2,69.1,192.3,69z"/>
	</g>
	<path fill="#182F58" d="M212.1,70.4C212.1,70.4,212.1,70.4,212.1,70.4c0-0.3,0.1-0.5,0.2-0.8c0,0,0,0,0-0.1c0-0.1,0.1-0.3,0.1-0.4
		c0.6-1.6,1.7-3,3.4-3.3c0,0,0,0,0,0c0,0,0,0,0.1,0c0.2,0,0.5-0.1,0.7-0.1c1,0,1.7,0.2,2.2,0.7c0.1,0.1,0.1,0.1,0.2,0.2c0,0,0,0,0,0
		c0.3,0.4,0.5,0.8,0.5,1.5h3.1c0-0.4,0-0.7-0.1-1c-0.1-0.7-0.5-1.7-1.3-2.5c-0.1-0.1-0.1-0.1-0.2-0.2c-0.1-0.1-0.2-0.2-0.3-0.2
		c-0.5-0.4-1.1-0.6-1.8-0.8c0,0,0,0,0,0c-0.3-0.1-0.6-0.1-1-0.2c-0.1,0-0.2,0-0.3,0c-0.3,0-0.6-0.1-1-0.1c-1,0-2.6,0.2-4.1,1.1
		c-0.1,0.1-0.2,0.1-0.3,0.2c-0.1,0.1-0.3,0.2-0.4,0.3c-0.2,0.2-0.4,0.3-0.6,0.5c0,0-0.1,0.1-0.1,0.1c-0.1,0.1-0.2,0.2-0.2,0.3
		c-0.8,0.9-1.4,2.1-1.8,3.7c-0.1,0.2-0.1,0.5-0.1,0.7c0,0,0,0,0,0c0,0.2-0.1,0.5-0.1,0.7c0,0.1,0,0.2,0,0.3c0,0.2,0,0.4,0,0.7
		c0,0.1,0,0.1,0,0.2c0,0.6,0,1,0.2,1.6c0.1,0.3,0.2,0.7,0.3,1l2.6-3.9C212.1,70.5,212.1,70.5,212.1,70.4z"/>
	<path fill="#56C5D1" d="M216.1,72.5h3.3c-0.5,1.8-1.6,3.1-4,3.1c-2.3,0-3.2-1.7-3.2-3.7l-2.3,3.6c1,1.7,2.9,2.7,5.5,2.7
		c1.3,0,2.7-0.5,3.6-1.8h0v1.5h2l1.6-7.7h-6.1L216.1,72.5z"/>
</g>
</svg>
